<svg version="1.1" id="Layer_1" xmlns="http://www.w3.org/2000/svg" xmlns:xlink="http://www.w3.org/1999/xlink" x="0px" y="0px"
	 width="100%" viewBox="0 0 2048 2048" enable-background="new 0 0 2048 2048" xml:space="preserve">
<path fill="#FFFFFF" opacity="1.000000" stroke="none" 
	d="
M1291.000000,2049.000000 
	C860.666687,2049.000000 430.833344,2049.000000 1.000000,2049.000000 
	C1.000000,1366.333374 1.000000,683.666687 1.000000,1.000000 
	C683.666687,1.000000 1366.333374,1.000000 2049.000000,1.000000 
	C2049.000000,683.666687 2049.000000,1366.333374 2049.000000,2049.000000 
	C1796.500000,2049.000000 1544.000000,2049.000000 1291.000000,2049.000000 
M580.935425,694.931946 
	C579.246094,697.257568 577.556763,699.583191 575.974670,701.975647 
	C575.974670,701.975647 575.900391,701.873352 575.320496,702.212830 
	C564.744507,718.352356 553.523315,734.111084 543.727417,750.710999 
	C523.557922,784.889587 507.658264,821.038513 495.936920,859.020996 
	C473.253387,932.526245 464.889130,1007.480957 473.993561,1083.973267 
	C476.939911,1108.727417 480.882111,1133.546997 486.854370,1157.722656 
	C505.554565,1233.420898 539.107178,1302.203003 587.503845,1363.418213 
	C600.690063,1380.096924 615.734680,1395.306519 630.031250,1411.637085 
	C630.205750,1411.925415 630.461426,1412.072266 631.075012,1412.701172 
	C632.922729,1414.406738 634.770386,1416.112427 636.726013,1418.075073 
	C636.838745,1418.236084 636.991333,1418.336670 637.466431,1418.975708 
	C638.298584,1419.681885 639.130737,1420.388184 640.101013,1421.562500 
	C640.298401,1421.854858 640.573181,1422.010254 641.193970,1422.644653 
	C643.342468,1424.711548 645.362610,1426.934937 647.659729,1428.820679 
	C666.065796,1443.931641 684.524170,1458.978882 702.997131,1473.999023 
	C702.997131,1473.999023 702.954407,1474.036377 703.287476,1474.615234 
	C730.999573,1495.006714 760.513367,1512.438599 791.597778,1527.081177 
	C848.282898,1553.782837 907.904907,1570.142700 970.284790,1576.247803 
	C1017.250305,1580.844360 1064.095825,1579.831421 1110.725464,1572.361206 
	C1171.906128,1562.560181 1229.923096,1543.187378 1284.385376,1513.623047 
	C1299.987305,1505.153564 1314.808472,1495.246216 1330.000000,1486.000000 
	C1330.000000,1486.000000 1330.000732,1485.989990 1330.679565,1485.854736 
	C1351.861084,1471.631470 1371.986694,1456.076538 1391.089722,1439.132446 
	C1431.989258,1402.855591 1467.182129,1361.754272 1496.159546,1315.415527 
	C1547.842163,1232.767822 1574.303955,1142.292969 1578.490845,1045.225220 
	C1581.392822,977.943054 1571.627808,912.233826 1549.870483,848.561707 
	C1525.008545,775.803955 1487.098267,710.477295 1434.645874,654.003723 
	C1421.079102,639.396912 1406.267212,625.946594 1392.000000,612.000000 
	C1392.000000,612.000000 1392.033936,611.971252 1391.752197,611.367065 
	C1389.906982,609.695496 1388.176392,607.872620 1386.198853,606.375916 
	C1367.304321,592.075745 1348.368042,577.830811 1329.359985,563.753967 
	C1329.359985,563.753967 1329.375366,563.552368 1328.992432,563.028442 
	C1283.625854,533.039124 1235.450684,508.976929 1182.920532,494.239105 
	C1167.461914,489.902039 1151.971680,485.509705 1136.265625,482.252899 
	C1077.345825,470.035248 1017.928772,468.106659 958.253052,475.409271 
	C887.857300,484.023712 821.490051,505.340424 759.384094,539.675781 
	C737.513977,551.766785 716.216431,564.777771 696.438660,580.417480 
	C696.438660,580.417480 696.294678,580.492676 695.712891,580.751709 
	C688.320557,586.594482 680.928284,592.437256 673.409180,598.393372 
	C673.409180,598.393372 673.262207,598.479004 672.682739,598.725891 
	C658.068909,612.443787 643.455139,626.161743 628.925293,639.924927 
	C628.925293,639.924927 628.917175,639.829895 628.377136,639.997742 
	C628.179993,640.307678 627.982849,640.617554 627.235107,641.165344 
	C626.476562,642.075256 625.718018,642.985168 624.431580,644.088318 
	C624.103882,644.532776 623.776184,644.977295 623.442688,645.535034 
	C623.442688,645.535034 623.329346,645.535217 622.784302,645.846863 
	C609.034607,662.054565 595.284851,678.262268 581.557617,694.562988 
	C581.557617,694.562988 581.463440,694.580383 580.935425,694.931946 
z"/>
<path fill="#234B80" opacity="1.000000" stroke="none" 
	d="
M630.798279,1412.077881 
	C630.461426,1412.072266 630.205750,1411.925415 630.000122,1411.007324 
	C628.612854,1408.158325 627.564697,1405.661133 625.852966,1403.762451 
	C608.296509,1384.286743 590.359192,1365.128052 575.635254,1343.310059 
	C567.224976,1330.847778 558.315674,1318.652100 550.861450,1305.631958 
	C540.614624,1287.734253 531.405640,1269.234497 522.029724,1250.851074 
	C519.187622,1245.278442 517.226196,1239.252075 514.928528,1233.407227 
	C509.681671,1220.059937 504.443756,1206.708862 499.292297,1193.324707 
	C498.588165,1191.495239 498.414764,1189.463989 497.968933,1187.532349 
	C496.653229,1181.831665 495.339966,1176.130371 493.989777,1170.437866 
	C493.626984,1168.908691 493.244080,1167.368042 492.681366,1165.905518 
	C491.520844,1162.889282 489.986664,1159.996460 489.056763,1156.916748 
	C487.747681,1152.581299 486.865601,1148.117676 485.765442,1143.717651 
	C485.218109,1141.528687 484.330475,1139.391846 484.054901,1137.174438 
	C483.463684,1132.418091 483.439087,1127.581909 482.687347,1122.857178 
	C481.710602,1116.718506 479.784027,1110.707886 479.108582,1104.549683 
	C478.026794,1094.686401 478.713379,1084.525024 476.723053,1074.888062 
	C472.972778,1056.729736 473.437500,1038.397095 473.253998,1020.158325 
	C473.082764,1003.142517 474.881073,986.095215 476.099274,969.082275 
	C476.652740,961.352783 477.763916,953.653503 478.866180,945.975525 
	C480.096558,937.405579 481.218170,928.788025 483.127228,920.358826 
	C484.389771,914.784058 482.679504,908.130859 488.301758,903.835632 
	C488.676727,903.549194 488.327393,902.319580 488.321564,901.528687 
	C488.306976,899.551636 487.900177,897.478821 488.350891,895.613708 
	C490.545288,886.533447 492.681946,877.421570 495.386993,868.486877 
	C498.594147,857.893799 502.069977,847.360901 505.962463,837.002258 
	C510.341980,825.347412 515.041748,813.793762 520.106934,802.420898 
	C525.393066,790.552063 530.808105,778.692444 537.040344,767.306946 
	C543.013062,756.395508 550.097473,746.091919 556.710632,735.531982 
	C562.303162,726.601685 568.004883,717.737976 573.462341,708.726135 
	C574.692505,706.694702 575.109253,704.170654 575.900391,701.873352 
	C575.900391,701.873352 575.974670,701.975647 576.281128,701.940552 
	C578.212830,699.463745 579.838135,697.022034 581.463440,694.580383 
	C581.463440,694.580383 581.557617,694.562988 581.909546,694.655212 
	C583.371643,694.129883 584.779541,693.763062 585.544189,692.854675 
	C591.159790,686.183228 596.572083,679.340393 602.195862,672.676025 
	C607.505127,666.384338 613.127197,660.353333 618.337524,653.983398 
	C620.384705,651.480774 621.687561,648.369385 623.329346,645.535217 
	C623.329346,645.535217 623.442688,645.535034 623.778015,645.546631 
	C624.395386,645.003845 624.677490,644.449463 624.959595,643.895081 
	C625.718018,642.985168 626.476562,642.075256 627.775879,640.955566 
	C628.516846,640.440552 628.716980,640.135193 628.917175,639.829895 
	C628.917175,639.829895 628.925293,639.924927 629.267822,639.935913 
	C631.199097,639.169067 633.087891,638.712952 634.325867,637.558777 
	C640.393982,631.901489 646.261597,626.029785 652.258728,620.295227 
	C654.640259,618.017944 657.198547,615.926819 659.632019,613.702332 
	C664.166382,609.557434 668.708862,605.419006 673.124023,601.149719 
	C673.592712,600.696472 673.236023,599.389771 673.262207,598.479004 
	C673.262207,598.479004 673.409180,598.393372 673.815918,598.528076 
	C674.704224,598.622070 675.317444,598.758972 675.648071,598.514160 
	C682.366150,593.541199 689.085144,588.567322 695.688354,583.444702 
	C696.291138,582.977112 696.111206,581.500671 696.294678,580.492676 
	C696.294678,580.492676 696.438660,580.417480 696.862610,580.562073 
	C700.917603,578.606079 704.564026,576.531677 708.176331,574.399414 
	C715.045715,570.344666 722.034058,566.469788 728.716614,562.125854 
	C736.141235,557.299500 743.092346,551.731506 750.607483,547.062256 
	C755.760925,543.860291 761.940491,542.252808 766.933777,538.861389 
	C778.797180,530.803772 792.050903,525.702637 804.997925,519.969421 
	C813.830994,516.057922 822.996704,512.892944 832.037476,509.456482 
	C840.006958,506.427246 847.987793,503.424500 856.013489,500.549072 
	C857.846802,499.892242 859.935486,499.980713 861.820679,499.431000 
	C877.033569,494.995361 892.006775,489.403778 907.480225,486.280975 
	C926.545654,482.433228 945.983276,480.286346 965.333740,478.039093 
	C981.097717,476.208374 996.953491,475.021942 1012.800659,474.106720 
	C1022.679138,473.536194 1032.620483,473.851440 1042.527832,474.051178 
	C1049.731567,474.196381 1056.931763,474.723541 1064.123169,475.226379 
	C1071.212891,475.722076 1078.299194,476.308014 1085.369995,477.022797 
	C1095.401123,478.036835 1105.527344,478.607666 1115.413086,480.444458 
	C1131.113892,483.361755 1146.704468,486.939392 1162.234619,490.682312 
	C1171.970215,493.028717 1181.546143,496.070862 1191.126953,499.017792 
	C1200.578003,501.924805 1210.075073,504.761658 1219.312988,508.260437 
	C1228.847534,511.871613 1238.249878,515.920471 1247.432007,520.353882 
	C1263.144653,527.940491 1278.752075,535.764465 1294.181396,543.909912 
	C1302.207153,548.146790 1309.682983,553.413086 1317.555176,557.958252 
	C1321.317627,560.130615 1325.424438,561.706421 1329.375366,563.552368 
	C1329.375366,563.552368 1329.359985,563.753967 1329.290283,564.030151 
	C1329.422607,564.914917 1329.433350,565.780579 1329.854858,566.094421 
	C1340.546631,574.053345 1351.304810,581.923218 1361.988037,589.893494 
	C1363.990356,591.387268 1365.634277,593.354919 1367.599121,594.906860 
	C1372.069092,598.437317 1376.541870,601.978271 1381.193970,605.259155 
	C1384.660889,607.704224 1388.410278,609.748474 1392.033936,611.971252 
	C1392.033936,611.971252 1392.000000,612.000000 1392.036865,612.332764 
	C1398.399048,619.711853 1404.552979,626.922302 1411.098999,633.757080 
	C1417.230713,640.158997 1423.903687,646.040039 1430.107300,652.376587 
	C1436.417969,658.822449 1442.689697,665.338196 1448.523926,672.209351 
	C1453.421631,677.977783 1457.799683,684.206726 1462.171509,690.398621 
	C1472.454346,704.962524 1482.728882,719.536011 1492.726685,734.295349 
	C1496.556396,739.948914 1499.774048,746.039246 1502.983765,752.082825 
	C1505.124878,756.114197 1506.448608,760.589905 1508.686890,764.557129 
	C1512.955200,772.122375 1517.743774,779.393250 1522.044312,786.941467 
	C1523.560425,789.602417 1524.111328,792.794495 1525.400635,795.607666 
	C1527.770752,800.779053 1530.525024,805.777710 1532.802124,810.987061 
	C1534.297241,814.407532 1535.072632,818.136475 1536.459351,821.611938 
	C1538.902588,827.734436 1541.773926,833.691895 1544.064209,839.867493 
	C1545.534058,843.830566 1546.041382,848.143616 1547.412476,852.151978 
	C1549.765137,859.030029 1552.962280,865.652954 1554.885986,872.636169 
	C1557.759155,883.065979 1559.930908,893.694641 1562.225464,904.276794 
	C1564.919678,916.701233 1567.697144,929.117432 1569.951538,941.625000 
	C1573.522583,961.436096 1574.639526,981.455444 1574.019287,1001.574524 
	C1573.973511,1003.056580 1573.847168,1004.684021 1574.359863,1006.011536 
	C1577.800293,1014.921875 1577.277832,1024.170166 1576.653076,1033.360718 
	C1576.052856,1042.191406 1574.797607,1050.975708 1574.049072,1059.798950 
	C1573.712036,1063.770630 1574.357178,1067.854248 1573.775269,1071.771118 
	C1572.067627,1083.265991 1569.728882,1094.668823 1568.104980,1106.173828 
	C1566.997070,1114.023438 1567.080444,1122.045776 1565.888062,1129.877808 
	C1564.634644,1138.110718 1562.718506,1146.266113 1560.647095,1154.341309 
	C1559.663818,1158.174561 1557.426514,1161.669922 1556.180176,1165.457520 
	C1555.431274,1167.733765 1555.777710,1170.357178 1555.122559,1172.681030 
	C1554.389771,1175.280640 1552.275391,1177.680176 1552.155884,1180.232056 
	C1551.448975,1195.329590 1544.557495,1208.526611 1539.665771,1222.329102 
	C1538.874023,1224.562744 1536.925049,1226.375732 1536.066406,1228.597900 
	C1533.184326,1236.056885 1530.836548,1243.731689 1527.744629,1251.097412 
	C1524.831787,1258.035767 1521.362061,1264.752563 1517.900879,1271.444458 
	C1515.167847,1276.728638 1512.160889,1281.877808 1509.114502,1286.990845 
	C1506.900635,1290.706543 1503.510620,1293.975220 1502.247559,1297.952271 
	C1499.295532,1307.246582 1494.011230,1315.032715 1488.106445,1322.457153 
	C1483.390869,1328.386475 1480.823608,1335.648804 1474.407837,1340.703857 
	C1470.026855,1344.155518 1468.113892,1350.643433 1464.807007,1355.579346 
	C1460.730713,1361.663330 1455.639893,1366.985840 1451.208740,1372.828125 
	C1443.105591,1383.511841 1433.556030,1393.117188 1424.396606,1402.974365 
	C1418.707886,1409.096558 1412.448608,1414.688232 1406.760010,1420.810669 
	C1395.287842,1433.157837 1382.001221,1443.401978 1369.000854,1453.986572 
	C1363.990601,1458.065674 1358.996582,1462.173706 1353.833862,1466.054077 
	C1349.003540,1469.684448 1343.756592,1472.781250 1339.078735,1476.587158 
	C1335.723633,1479.316772 1333.003906,1482.827637 1330.000732,1485.989990 
	C1330.000732,1485.989990 1330.000000,1486.000000 1329.597534,1485.999023 
	C1327.587280,1486.358521 1325.786743,1486.371460 1324.404785,1487.138672 
	C1318.003296,1490.692749 1311.798218,1494.603638 1305.367676,1498.101440 
	C1299.486694,1501.300415 1293.405396,1504.131104 1287.417725,1507.134521 
	C1286.987793,1507.350220 1286.589966,1507.636719 1286.196777,1507.917603 
	C1281.850098,1511.023438 1277.600098,1514.277100 1273.129517,1517.192261 
	C1270.297363,1519.039307 1267.206299,1520.536743 1264.111450,1521.923706 
	C1256.487793,1525.339844 1248.815796,1528.650635 1241.123779,1531.910278 
	C1235.140869,1534.445679 1228.525391,1534.876709 1223.033936,1539.458496 
	C1220.187744,1541.833374 1215.126343,1541.647461 1211.001709,1543.465576 
	C1199.772705,1548.415161 1187.854370,1551.909790 1176.022949,1555.338501 
	C1170.048584,1557.069702 1163.539429,1556.911865 1157.510132,1558.507812 
	C1150.324829,1560.409668 1143.522827,1563.787476 1136.320190,1565.588257 
	C1128.241821,1567.608032 1119.934448,1568.824097 1111.666260,1569.943237 
	C1102.173706,1571.228027 1092.484741,1571.352295 1083.111816,1573.170410 
	C1063.326660,1577.008179 1043.316040,1576.206665 1023.397583,1576.851318 
	C1007.925720,1577.351807 992.569946,1575.390869 977.122375,1573.673218 
	C959.571411,1571.721558 941.937256,1570.305420 924.509277,1567.253662 
	C915.295654,1565.640137 906.234741,1563.139526 897.010498,1561.607178 
	C889.976990,1560.438843 883.953613,1556.008057 876.344788,1556.347046 
	C872.763611,1556.506714 869.051331,1553.722168 865.398499,1552.271851 
	C864.004700,1551.456421 862.071838,1552.062744 860.476807,1551.571655 
	C853.882141,1549.541626 847.292908,1547.424194 840.880249,1544.887329 
	C827.717468,1539.680054 814.648071,1534.234009 801.589172,1528.769165 
	C798.340576,1527.409668 795.343994,1525.453369 792.110291,1524.051025 
	C789.442810,1522.894409 786.422119,1522.485107 783.865601,1521.153931 
	C778.497498,1518.358521 773.343140,1515.155029 768.080383,1512.155029 
	C760.759521,1507.982178 753.329651,1503.990967 746.123291,1499.629761 
	C742.071960,1497.178101 738.730347,1492.883911 734.433594,1491.671509 
	C728.647766,1490.038452 725.105103,1485.777954 720.377319,1483.031128 
	C714.733093,1479.751709 708.776001,1477.010620 702.954407,1474.036377 
	C702.954407,1474.036377 702.997131,1473.999023 702.959412,1473.663086 
	C702.248779,1472.225830 701.812073,1470.827881 700.863647,1470.072632 
	C695.709473,1465.968018 690.438416,1462.009399 685.188354,1458.025879 
	C682.245422,1455.792969 679.137939,1453.758301 676.334900,1451.364624 
	C672.971436,1448.492310 669.920776,1445.256958 666.613159,1442.315308 
	C661.355896,1437.639648 656.241577,1432.745361 650.586670,1428.598022 
	C647.477051,1426.317261 646.191895,1421.122192 640.925415,1422.028687 
	C640.573181,1422.010254 640.298401,1421.854858 640.030884,1420.914795 
	C639.035034,1419.636963 638.109375,1419.006836 637.183716,1418.376587 
	C636.991333,1418.336670 636.838745,1418.236084 636.776367,1417.524170 
	C636.711182,1413.009277 634.057190,1412.171143 630.798279,1412.077881 
M945.789429,670.248962 
	C944.627075,669.842346 943.465393,669.082886 942.302246,669.080566 
	C908.162781,669.012756 874.023071,668.998657 839.883789,669.100769 
	C838.615417,669.104553 837.350830,670.358643 835.771973,671.226379 
	C835.771973,671.226379 835.405884,671.272888 834.554810,671.219177 
	C834.042114,673.298462 833.080933,675.377686 833.080322,677.457092 
	C833.016235,887.864929 833.024780,1098.272705 833.029968,1308.680542 
	C833.029968,1310.013184 832.719604,1311.463623 833.146301,1312.645142 
	C833.564941,1313.804565 834.740417,1314.690552 835.901794,1315.731567 
	C835.901794,1315.731567 836.146179,1315.938110 836.203796,1316.746338 
	C838.194275,1317.162109 840.184509,1317.939819 842.175354,1317.941406 
	C921.002380,1318.005981 999.830261,1317.800659 1078.655884,1318.133789 
	C1100.233887,1318.224976 1121.239990,1315.840332 1142.037231,1310.104614 
	C1159.039062,1305.415894 1174.658203,1298.236084 1189.014404,1288.029053 
	C1205.397583,1276.380615 1219.871826,1262.830933 1230.492920,1245.689575 
	C1246.540161,1219.791260 1254.033325,1191.307251 1253.826904,1160.943481 
	C1253.760864,1151.241943 1252.887207,1141.355957 1250.794922,1131.906006 
	C1248.156860,1119.990967 1245.109863,1107.883545 1240.094116,1096.832642 
	C1226.564453,1067.023926 1203.045410,1047.294556 1173.272095,1034.568604 
	C1171.405273,1033.770508 1169.732178,1032.518799 1167.343384,1031.108887 
	C1169.490967,1029.497925 1170.843506,1028.333862 1172.334229,1027.388062 
	C1188.714966,1016.995422 1200.022705,1002.146912 1208.300171,985.033936 
	C1217.639648,965.725769 1220.873047,944.837341 1220.735474,923.626953 
	C1220.665283,912.793091 1218.921631,901.851624 1216.836548,891.173157 
	C1212.082153,866.824768 1201.232300,845.349976 1183.867432,827.507080 
	C1168.923218,812.151550 1151.230957,801.057434 1130.618530,794.727478 
	C1109.418945,788.217285 1087.804443,784.175232 1065.611938,784.056152 
	C1028.782471,783.858521 991.950989,783.921875 955.121399,784.093750 
	C950.277649,784.116333 948.404297,782.617188 948.918884,777.808472 
	C949.200989,775.172302 948.967346,772.480957 948.967590,769.814514 
	C948.970520,739.223938 948.991577,708.633423 948.945068,678.042908 
	C948.941101,675.409973 949.861328,672.181885 945.900391,671.118530 
	C945.900391,671.118530 945.866394,671.051575 945.789429,670.248962 
z"/>
<path fill="#254C7E" opacity="1.000000" stroke="none" 
	d="
M1330.340088,1485.922363 
	C1333.003906,1482.827637 1335.723633,1479.316772 1339.078735,1476.587158 
	C1343.756592,1472.781250 1349.003540,1469.684448 1353.833862,1466.054077 
	C1358.996582,1462.173706 1363.990601,1458.065674 1369.000854,1453.986572 
	C1382.001221,1443.401978 1395.287842,1433.157837 1406.760010,1420.810669 
	C1412.448608,1414.688232 1418.707886,1409.096558 1424.396606,1402.974365 
	C1433.556030,1393.117188 1443.105591,1383.511841 1451.208740,1372.828125 
	C1455.639893,1366.985840 1460.730713,1361.663330 1464.807007,1355.579346 
	C1468.113892,1350.643433 1470.026855,1344.155518 1474.407837,1340.703857 
	C1480.823608,1335.648804 1483.390869,1328.386475 1488.106445,1322.457153 
	C1494.011230,1315.032715 1499.295532,1307.246582 1502.247559,1297.952271 
	C1503.510620,1293.975220 1506.900635,1290.706543 1509.114502,1286.990845 
	C1512.160889,1281.877808 1515.167847,1276.728638 1517.900879,1271.444458 
	C1521.362061,1264.752563 1524.831787,1258.035767 1527.744629,1251.097412 
	C1530.836548,1243.731689 1533.184326,1236.056885 1536.066406,1228.597900 
	C1536.925049,1226.375732 1538.874023,1224.562744 1539.665771,1222.329102 
	C1544.557495,1208.526611 1551.448975,1195.329590 1552.155884,1180.232056 
	C1552.275391,1177.680176 1554.389771,1175.280640 1555.122559,1172.681030 
	C1555.777710,1170.357178 1555.431274,1167.733765 1556.180176,1165.457520 
	C1557.426514,1161.669922 1559.663818,1158.174561 1560.647095,1154.341309 
	C1562.718506,1146.266113 1564.634644,1138.110718 1565.888062,1129.877808 
	C1567.080444,1122.045776 1566.997070,1114.023438 1568.104980,1106.173828 
	C1569.728882,1094.668823 1572.067627,1083.265991 1573.775269,1071.771118 
	C1574.357178,1067.854248 1573.712036,1063.770630 1574.049072,1059.798950 
	C1574.797607,1050.975708 1576.052856,1042.191406 1576.653076,1033.360718 
	C1577.277832,1024.170166 1577.800293,1014.921875 1574.359863,1006.011536 
	C1573.847168,1004.684021 1573.973511,1003.056580 1574.019287,1001.574524 
	C1574.639526,981.455444 1573.522583,961.436096 1569.951538,941.625000 
	C1567.697144,929.117432 1564.919678,916.701233 1562.225464,904.276794 
	C1559.930908,893.694641 1557.759155,883.065979 1554.885986,872.636169 
	C1552.962280,865.652954 1549.765137,859.030029 1547.412476,852.151978 
	C1546.041382,848.143616 1545.534058,843.830566 1544.064209,839.867493 
	C1541.773926,833.691895 1538.902588,827.734436 1536.459351,821.611938 
	C1535.072632,818.136475 1534.297241,814.407532 1532.802124,810.987061 
	C1530.525024,805.777710 1527.770752,800.779053 1525.400635,795.607666 
	C1524.111328,792.794495 1523.560425,789.602417 1522.044312,786.941467 
	C1517.743774,779.393250 1512.955200,772.122375 1508.686890,764.557129 
	C1506.448608,760.589905 1505.124878,756.114197 1502.983765,752.082825 
	C1499.774048,746.039246 1496.556396,739.948914 1492.726685,734.295349 
	C1482.728882,719.536011 1472.454346,704.962524 1462.171509,690.398621 
	C1457.799683,684.206726 1453.421631,677.977783 1448.523926,672.209351 
	C1442.689697,665.338196 1436.417969,658.822449 1430.107300,652.376587 
	C1423.903687,646.040039 1417.230713,640.158997 1411.098999,633.757080 
	C1404.552979,626.922302 1398.399048,619.711853 1392.050537,612.315308 
	C1406.267212,625.946594 1421.079102,639.396912 1434.645874,654.003723 
	C1487.098267,710.477295 1525.008545,775.803955 1549.870483,848.561707 
	C1571.627808,912.233826 1581.392822,977.943054 1578.490845,1045.225220 
	C1574.303955,1142.292969 1547.842163,1232.767822 1496.159546,1315.415527 
	C1467.182129,1361.754272 1431.989258,1402.855591 1391.089722,1439.132446 
	C1371.986694,1456.076538 1351.861084,1471.631470 1330.340088,1485.922363 
z"/>
<path fill="#254C7E" opacity="1.000000" stroke="none" 
	d="
M575.610474,702.043091 
	C575.109253,704.170654 574.692505,706.694702 573.462341,708.726135 
	C568.004883,717.737976 562.303162,726.601685 556.710632,735.531982 
	C550.097473,746.091919 543.013062,756.395508 537.040344,767.306946 
	C530.808105,778.692444 525.393066,790.552063 520.106934,802.420898 
	C515.041748,813.793762 510.341980,825.347412 505.962463,837.002258 
	C502.069977,847.360901 498.594147,857.893799 495.386993,868.486877 
	C492.681946,877.421570 490.545288,886.533447 488.350891,895.613708 
	C487.900177,897.478821 488.306976,899.551636 488.321564,901.528687 
	C488.327393,902.319580 488.676727,903.549194 488.301758,903.835632 
	C482.679504,908.130859 484.389771,914.784058 483.127228,920.358826 
	C481.218170,928.788025 480.096558,937.405579 478.866180,945.975525 
	C477.763916,953.653503 476.652740,961.352783 476.099274,969.082275 
	C474.881073,986.095215 473.082764,1003.142517 473.253998,1020.158325 
	C473.437500,1038.397095 472.972778,1056.729736 476.723053,1074.888062 
	C478.713379,1084.525024 478.026794,1094.686401 479.108582,1104.549683 
	C479.784027,1110.707886 481.710602,1116.718506 482.687347,1122.857178 
	C483.439087,1127.581909 483.463684,1132.418091 484.054901,1137.174438 
	C484.330475,1139.391846 485.218109,1141.528687 485.765442,1143.717651 
	C486.865601,1148.117676 487.747681,1152.581299 489.056763,1156.916748 
	C489.986664,1159.996460 491.520844,1162.889282 492.681366,1165.905518 
	C493.244080,1167.368042 493.626984,1168.908691 493.989777,1170.437866 
	C495.339966,1176.130371 496.653229,1181.831665 497.968933,1187.532349 
	C498.414764,1189.463989 498.588165,1191.495239 499.292297,1193.324707 
	C504.443756,1206.708862 509.681671,1220.059937 514.928528,1233.407227 
	C517.226196,1239.252075 519.187622,1245.278442 522.029724,1250.851074 
	C531.405640,1269.234497 540.614624,1287.734253 550.861450,1305.631958 
	C558.315674,1318.652100 567.224976,1330.847778 575.635254,1343.310059 
	C590.359192,1365.128052 608.296509,1384.286743 625.852966,1403.762451 
	C627.564697,1405.661133 628.612854,1408.158325 629.947754,1410.783936 
	C615.734680,1395.306519 600.690063,1380.096924 587.503845,1363.418213 
	C539.107178,1302.203003 505.554565,1233.420898 486.854370,1157.722656 
	C480.882111,1133.546997 476.939911,1108.727417 473.993561,1083.973267 
	C464.889130,1007.480957 473.253387,932.526245 495.936920,859.020996 
	C507.658264,821.038513 523.557922,784.889587 543.727417,750.710999 
	C553.523315,734.111084 564.744507,718.352356 575.610474,702.043091 
z"/>
<path fill="#254C7E" opacity="1.000000" stroke="none" 
	d="
M703.120972,1474.325806 
	C708.776001,1477.010620 714.733093,1479.751709 720.377319,1483.031128 
	C725.105103,1485.777954 728.647766,1490.038452 734.433594,1491.671509 
	C738.730347,1492.883911 742.071960,1497.178101 746.123291,1499.629761 
	C753.329651,1503.990967 760.759521,1507.982178 768.080383,1512.155029 
	C773.343140,1515.155029 778.497498,1518.358521 783.865601,1521.153931 
	C786.422119,1522.485107 789.442810,1522.894409 792.110291,1524.051025 
	C795.343994,1525.453369 798.340576,1527.409668 801.589172,1528.769165 
	C814.648071,1534.234009 827.717468,1539.680054 840.880249,1544.887329 
	C847.292908,1547.424194 853.882141,1549.541626 860.476807,1551.571655 
	C862.071838,1552.062744 864.004700,1551.456421 865.398499,1552.271851 
	C869.051331,1553.722168 872.763611,1556.506714 876.344788,1556.347046 
	C883.953613,1556.008057 889.976990,1560.438843 897.010498,1561.607178 
	C906.234741,1563.139526 915.295654,1565.640137 924.509277,1567.253662 
	C941.937256,1570.305420 959.571411,1571.721558 977.122375,1573.673218 
	C992.569946,1575.390869 1007.925720,1577.351807 1023.397583,1576.851318 
	C1043.316040,1576.206665 1063.326660,1577.008179 1083.111816,1573.170410 
	C1092.484741,1571.352295 1102.173706,1571.228027 1111.666260,1569.943237 
	C1119.934448,1568.824097 1128.241821,1567.608032 1136.320190,1565.588257 
	C1143.522827,1563.787476 1150.324829,1560.409668 1157.510132,1558.507812 
	C1163.539429,1556.911865 1170.048584,1557.069702 1176.022949,1555.338501 
	C1187.854370,1551.909790 1199.772705,1548.415161 1211.001709,1543.465576 
	C1215.126343,1541.647461 1220.187744,1541.833374 1223.033936,1539.458496 
	C1228.525391,1534.876709 1235.140869,1534.445679 1241.123779,1531.910278 
	C1248.815796,1528.650635 1256.487793,1525.339844 1264.111450,1521.923706 
	C1267.206299,1520.536743 1270.297363,1519.039307 1273.129517,1517.192261 
	C1277.600098,1514.277100 1281.850098,1511.023438 1286.196777,1507.917603 
	C1286.589966,1507.636719 1286.987793,1507.350220 1287.417725,1507.134521 
	C1293.405396,1504.131104 1299.486694,1501.300415 1305.367676,1498.101440 
	C1311.798218,1494.603638 1318.003296,1490.692749 1324.404785,1487.138672 
	C1325.786743,1486.371460 1327.587280,1486.358521 1329.591309,1485.998169 
	C1314.808472,1495.246216 1299.987305,1505.153564 1284.385376,1513.623047 
	C1229.923096,1543.187378 1171.906128,1562.560181 1110.725464,1572.361206 
	C1064.095825,1579.831421 1017.250305,1580.844360 970.284790,1576.247803 
	C907.904907,1570.142700 848.282898,1553.782837 791.597778,1527.081177 
	C760.513367,1512.438599 730.999573,1495.006714 703.120972,1474.325806 
z"/>
<path fill="#254C7E" opacity="1.000000" stroke="none" 
	d="
M1329.183838,563.290405 
	C1325.424438,561.706421 1321.317627,560.130615 1317.555176,557.958252 
	C1309.682983,553.413086 1302.207153,548.146790 1294.181396,543.909912 
	C1278.752075,535.764465 1263.144653,527.940491 1247.432007,520.353882 
	C1238.249878,515.920471 1228.847534,511.871613 1219.312988,508.260437 
	C1210.075073,504.761658 1200.578003,501.924805 1191.126953,499.017792 
	C1181.546143,496.070862 1171.970215,493.028717 1162.234619,490.682312 
	C1146.704468,486.939392 1131.113892,483.361755 1115.413086,480.444458 
	C1105.527344,478.607666 1095.401123,478.036835 1085.369995,477.022797 
	C1078.299194,476.308014 1071.212891,475.722076 1064.123169,475.226379 
	C1056.931763,474.723541 1049.731567,474.196381 1042.527832,474.051178 
	C1032.620483,473.851440 1022.679138,473.536194 1012.800659,474.106720 
	C996.953491,475.021942 981.097717,476.208374 965.333740,478.039093 
	C945.983276,480.286346 926.545654,482.433228 907.480225,486.280975 
	C892.006775,489.403778 877.033569,494.995361 861.820679,499.431000 
	C859.935486,499.980713 857.846802,499.892242 856.013489,500.549072 
	C847.987793,503.424500 840.006958,506.427246 832.037476,509.456482 
	C822.996704,512.892944 813.830994,516.057922 804.997925,519.969421 
	C792.050903,525.702637 778.797180,530.803772 766.933777,538.861389 
	C761.940491,542.252808 755.760925,543.860291 750.607483,547.062256 
	C743.092346,551.731506 736.141235,557.299500 728.716614,562.125854 
	C722.034058,566.469788 715.045715,570.344666 708.176331,574.399414 
	C704.564026,576.531677 700.917603,578.606079 696.926636,580.512085 
	C716.216431,564.777771 737.513977,551.766785 759.384094,539.675781 
	C821.490051,505.340424 887.857300,484.023712 958.253052,475.409271 
	C1017.928772,468.106659 1077.345825,470.035248 1136.265625,482.252899 
	C1151.971680,485.509705 1167.461914,489.902039 1182.920532,494.239105 
	C1235.450684,508.976929 1283.625854,533.039124 1329.183838,563.290405 
z"/>
<path fill="#254C7E" opacity="1.000000" stroke="none" 
	d="
M1391.893066,611.669189 
	C1388.410278,609.748474 1384.660889,607.704224 1381.193970,605.259155 
	C1376.541870,601.978271 1372.069092,598.437317 1367.599121,594.906860 
	C1365.634277,593.354919 1363.990356,591.387268 1361.988037,589.893494 
	C1351.304810,581.923218 1340.546631,574.053345 1329.854858,566.094421 
	C1329.433350,565.780579 1329.422607,564.914917 1329.332031,563.938110 
	C1348.368042,577.830811 1367.304321,592.075745 1386.198853,606.375916 
	C1388.176392,607.872620 1389.906982,609.695496 1391.893066,611.669189 
z"/>
<path fill="#254C7E" opacity="1.000000" stroke="none" 
	d="
M641.059692,1422.336670 
	C646.191895,1421.122192 647.477051,1426.317261 650.586670,1428.598022 
	C656.241577,1432.745361 661.355896,1437.639648 666.613159,1442.315308 
	C669.920776,1445.256958 672.971436,1448.492310 676.334900,1451.364624 
	C679.137939,1453.758301 682.245422,1455.792969 685.188354,1458.025879 
	C690.438416,1462.009399 695.709473,1465.968018 700.863647,1470.072632 
	C701.812073,1470.827881 702.248779,1472.225830 702.944092,1473.686279 
	C684.524170,1458.978882 666.065796,1443.931641 647.659729,1428.820679 
	C645.362610,1426.934937 643.342468,1424.711548 641.059692,1422.336670 
z"/>
<path fill="#254C7E" opacity="1.000000" stroke="none" 
	d="
M672.972473,598.602417 
	C673.236023,599.389771 673.592712,600.696472 673.124023,601.149719 
	C668.708862,605.419006 664.166382,609.557434 659.632019,613.702332 
	C657.198547,615.926819 654.640259,618.017944 652.258728,620.295227 
	C646.261597,626.029785 640.393982,631.901489 634.325867,637.558777 
	C633.087891,638.712952 631.199097,639.169067 629.225830,639.913330 
	C643.455139,626.161743 658.068909,612.443787 672.972473,598.602417 
z"/>
<path fill="#254C7E" opacity="1.000000" stroke="none" 
	d="
M623.056763,645.691040 
	C621.687561,648.369385 620.384705,651.480774 618.337524,653.983398 
	C613.127197,660.353333 607.505127,666.384338 602.195862,672.676025 
	C596.572083,679.340393 591.159790,686.183228 585.544189,692.854675 
	C584.779541,693.763062 583.371643,694.129883 581.898315,694.608704 
	C595.284851,678.262268 609.034607,662.054565 623.056763,645.691040 
z"/>
<path fill="#254C7E" opacity="1.000000" stroke="none" 
	d="
M696.003784,580.622192 
	C696.111206,581.500671 696.291138,582.977112 695.688354,583.444702 
	C689.085144,588.567322 682.366150,593.541199 675.648071,598.514160 
	C675.317444,598.758972 674.704224,598.622070 673.879272,598.471436 
	C680.928284,592.437256 688.320557,586.594482 696.003784,580.622192 
z"/>
<path fill="#254C7E" opacity="1.000000" stroke="none" 
	d="
M581.199463,694.756165 
	C579.838135,697.022034 578.212830,699.463745 576.227478,701.907104 
	C577.556763,699.583191 579.246094,697.257568 581.199463,694.756165 
z"/>
<path fill="#254C7E" opacity="1.000000" stroke="none" 
	d="
M630.936646,1412.389526 
	C634.057190,1412.171143 636.711182,1413.009277 636.722412,1417.395752 
	C634.770386,1416.112427 632.922729,1414.406738 630.936646,1412.389526 
z"/>
<path fill="#254C7E" opacity="1.000000" stroke="none" 
	d="
M637.325073,1418.676147 
	C638.109375,1419.006836 639.035034,1419.636963 639.961792,1420.680908 
	C639.130737,1420.388184 638.298584,1419.681885 637.325073,1418.676147 
z"/>
<path fill="#254C7E" opacity="1.000000" stroke="none" 
	d="
M624.695557,643.991699 
	C624.677490,644.449463 624.395386,645.003845 623.780945,645.489990 
	C623.776184,644.977295 624.103882,644.532776 624.695557,643.991699 
z"/>
<path fill="#254C7E" opacity="1.000000" stroke="none" 
	d="
M628.647156,639.913818 
	C628.716980,640.135193 628.516846,640.440552 628.051147,640.836670 
	C627.982849,640.617554 628.179993,640.307678 628.647156,639.913818 
z"/>
<path fill="#D8BC6D" opacity="1.000000" stroke="none" 
	d="
M836.146179,1315.938110 
	C836.146179,1315.938110 835.901794,1315.731567 835.695679,1315.275513 
	C835.433167,1176.083252 835.356873,1037.347046 835.328064,898.610840 
	C835.312378,822.831543 835.377319,747.052185 835.405884,671.272888 
	C835.405884,671.272888 835.771973,671.226379 836.385071,671.180298 
	C873.287598,671.106689 909.576965,671.079102 945.866394,671.051575 
	C945.866394,671.051575 945.900391,671.118530 945.992310,671.576782 
	C946.099243,709.969116 946.114258,747.903076 945.719238,785.818420 
	C944.877075,783.990112 944.072144,782.181274 944.068237,780.370728 
	C943.995667,747.046021 944.018921,713.721008 944.021851,680.396118 
	C944.022034,678.447815 944.021851,676.499512 944.021851,674.091736 
	C908.380859,671.642456 873.411194,673.754700 838.241455,673.906616 
	C838.128845,676.308777 837.999329,677.782227 837.999268,679.255737 
	C837.988647,888.536194 837.999939,1097.816650 837.903320,1307.097168 
	C837.901184,1311.689209 839.265198,1313.159668 843.892395,1313.119385 
	C866.884888,1312.918945 889.880676,1312.906372 912.873962,1313.048462 
	C947.160889,1313.260254 981.448059,1314.010620 1015.732483,1313.874634 
	C1049.116699,1313.742432 1082.590942,1315.844727 1115.843872,1311.006714 
	C1133.981567,1308.367798 1151.582397,1303.759155 1167.996216,1295.445068 
	C1189.801147,1284.400024 1208.098511,1269.076782 1222.799316,1249.490967 
	C1223.580078,1248.450928 1225.027832,1247.911743 1226.117920,1247.484619 
	C1225.728027,1248.398193 1225.423706,1248.994263 1225.036621,1249.530762 
	C1195.691895,1290.197266 1154.783203,1310.150024 1105.899292,1314.670532 
	C1087.551880,1316.367065 1068.973633,1315.818848 1050.499756,1315.851318 
	C979.048767,1315.977051 907.597412,1315.924316 836.146179,1315.938110 
z"/>
<path fill="#404E52" opacity="1.000000" stroke="none" 
	d="
M836.174988,1316.342285 
	C907.597412,1315.924316 979.048767,1315.977051 1050.499756,1315.851318 
	C1068.973633,1315.818848 1087.551880,1316.367065 1105.899292,1314.670532 
	C1154.783203,1310.150024 1195.691895,1290.197266 1225.036621,1249.530762 
	C1225.423706,1248.994263 1225.728027,1248.398193 1226.100708,1247.460449 
	C1226.130493,1247.090820 1226.073608,1247.077881 1226.391602,1246.952148 
	C1231.162231,1238.671997 1236.386230,1230.837402 1239.927246,1222.304443 
	C1251.921143,1193.402466 1253.990479,1163.208008 1248.891968,1132.634399 
	C1240.552856,1082.626587 1210.245483,1050.888916 1163.909180,1032.629395 
	C1163.581543,1031.707886 1163.390381,1031.027832 1163.530762,1030.240479 
	C1167.602295,1027.450195 1171.342285,1024.766846 1175.059814,1022.099854 
	C1175.037476,1022.116028 1175.093018,1022.117798 1175.427979,1022.101929 
	C1177.200806,1020.744873 1178.638550,1019.403809 1180.033203,1018.049194 
	C1179.990112,1018.035645 1180.061523,1018.091309 1180.401611,1018.054199 
	C1191.849609,1008.815796 1200.177002,997.404968 1206.003540,984.360962 
	C1219.218628,954.775146 1221.535522,923.835815 1214.758545,892.459229 
	C1205.066528,847.585571 1179.114746,815.851379 1135.943970,798.985291 
	C1113.332397,790.151245 1089.588013,786.673889 1065.543457,786.297424 
	C1029.237305,785.728882 992.915405,786.184937 956.600159,786.176819 
	C953.110046,786.176025 949.619995,785.971863 946.113892,785.860962 
	C946.097900,785.859863 946.129272,785.837097 946.129272,785.837097 
	C946.114258,747.903076 946.099243,709.969116 946.029175,671.583862 
	C949.861328,672.181885 948.941101,675.409973 948.945068,678.042908 
	C948.991577,708.633423 948.970520,739.223938 948.967590,769.814514 
	C948.967346,772.480957 949.200989,775.172302 948.918884,777.808472 
	C948.404297,782.617188 950.277649,784.116333 955.121399,784.093750 
	C991.950989,783.921875 1028.782471,783.858521 1065.611938,784.056152 
	C1087.804443,784.175232 1109.418945,788.217285 1130.618530,794.727478 
	C1151.230957,801.057434 1168.923218,812.151550 1183.867432,827.507080 
	C1201.232300,845.349976 1212.082153,866.824768 1216.836548,891.173157 
	C1218.921631,901.851624 1220.665283,912.793091 1220.735474,923.626953 
	C1220.873047,944.837341 1217.639648,965.725769 1208.300171,985.033936 
	C1200.022705,1002.146912 1188.714966,1016.995422 1172.334229,1027.388062 
	C1170.843506,1028.333862 1169.490967,1029.497925 1167.343384,1031.108887 
	C1169.732178,1032.518799 1171.405273,1033.770508 1173.272095,1034.568604 
	C1203.045410,1047.294556 1226.564453,1067.023926 1240.094116,1096.832642 
	C1245.109863,1107.883545 1248.156860,1119.990967 1250.794922,1131.906006 
	C1252.887207,1141.355957 1253.760864,1151.241943 1253.826904,1160.943481 
	C1254.033325,1191.307251 1246.540161,1219.791260 1230.492920,1245.689575 
	C1219.871826,1262.830933 1205.397583,1276.380615 1189.014404,1288.029053 
	C1174.658203,1298.236084 1159.039062,1305.415894 1142.037231,1310.104614 
	C1121.239990,1315.840332 1100.233887,1318.224976 1078.655884,1318.133789 
	C999.830261,1317.800659 921.002380,1318.005981 842.175354,1317.941406 
	C840.184509,1317.939819 838.194275,1317.162109 836.174988,1316.342285 
z"/>
<path fill="#404E52" opacity="1.000000" stroke="none" 
	d="
M834.980347,671.246033 
	C835.377319,747.052185 835.312378,822.831543 835.328064,898.610840 
	C835.356873,1037.347046 835.433167,1176.083252 835.536621,1315.258057 
	C834.740417,1314.690552 833.564941,1313.804565 833.146301,1312.645142 
	C832.719604,1311.463623 833.029968,1310.013184 833.029968,1308.680542 
	C833.024780,1098.272705 833.016235,887.864929 833.080322,677.457092 
	C833.080933,675.377686 834.042114,673.298462 834.980347,671.246033 
z"/>
<path fill="#404E52" opacity="1.000000" stroke="none" 
	d="
M945.827881,670.650269 
	C909.576965,671.079102 873.287598,671.106689 836.541321,671.082153 
	C837.350830,670.358643 838.615417,669.104553 839.883789,669.100769 
	C874.023071,668.998657 908.162781,669.012756 942.302246,669.080566 
	C943.465393,669.082886 944.627075,669.842346 945.827881,670.650269 
z"/>
<path fill="#EDBB43" opacity="1.000000" stroke="none" 
	d="
M1163.199219,1030.347656 
	C1163.390381,1031.027832 1163.581543,1031.707886 1163.890137,1033.014160 
	C1165.717896,1034.932983 1167.241333,1036.755493 1169.167847,1037.433960 
	C1183.960938,1042.643799 1196.197876,1051.971680 1208.100342,1061.692993 
	C1228.947998,1078.720093 1240.062744,1101.723267 1245.688721,1127.333740 
	C1249.494385,1144.658203 1250.221802,1162.402588 1248.119019,1180.205688 
	C1245.556641,1201.899414 1238.948364,1222.149414 1228.066528,1241.064575 
	C1227.035034,1242.857666 1226.720947,1245.063599 1226.073730,1247.077881 
	C1226.073608,1247.077881 1226.130493,1247.090820 1226.147705,1247.114990 
	C1225.027832,1247.911743 1223.580078,1248.450928 1222.799316,1249.490967 
	C1208.098511,1269.076782 1189.801147,1284.400024 1167.996216,1295.445068 
	C1151.582397,1303.759155 1133.981567,1308.367798 1115.843872,1311.006714 
	C1082.590942,1315.844727 1049.116699,1313.742432 1015.732483,1313.874634 
	C981.448059,1314.010620 947.160889,1313.260254 912.873962,1313.048462 
	C889.880676,1312.906372 866.884888,1312.918945 843.892395,1313.119385 
	C839.265198,1313.159668 837.901184,1311.689209 837.903320,1307.097168 
	C837.999939,1097.816650 837.988647,888.536194 837.999268,679.255737 
	C837.999329,677.782227 838.128845,676.308777 838.241455,673.906616 
	C873.411194,673.754700 908.380859,671.642456 944.021851,674.091736 
	C944.021851,676.499512 944.022034,678.447815 944.021851,680.396118 
	C944.018921,713.721008 943.995667,747.046021 944.068237,780.370728 
	C944.072144,782.181274 944.877075,783.990112 945.719238,785.818420 
	C946.129272,785.837097 946.097900,785.859863 946.139648,786.267944 
	C950.770996,787.441711 955.348816,788.771851 959.952332,788.867676 
	C973.964661,789.159363 987.986938,788.975586 1002.005310,788.975342 
	C1024.904053,788.974976 1047.837158,788.211243 1070.689575,789.239868 
	C1085.961304,789.927246 1101.303345,792.286011 1116.286621,795.447632 
	C1144.393188,801.378357 1167.695190,815.675598 1186.481567,837.732178 
	C1201.742676,855.649841 1209.933838,876.584351 1213.665649,899.173218 
	C1215.717407,911.592346 1215.128540,924.529663 1214.932251,937.221008 
	C1214.535156,962.924377 1205.524902,985.651184 1189.777466,1005.813721 
	C1186.565063,1009.926758 1183.301514,1013.999817 1180.061523,1018.091309 
	C1180.061523,1018.091309 1179.990112,1018.035645 1179.660278,1018.017456 
	C1177.917969,1019.372192 1176.505493,1020.744995 1175.093018,1022.117798 
	C1175.093018,1022.117798 1175.037476,1022.116028 1174.683228,1022.061340 
	C1170.280396,1024.335083 1164.544067,1024.411499 1163.199219,1030.347656 
M945.992126,995.951843 
	C945.992126,995.951843 946.116577,995.890625 946.148071,996.657959 
	C949.707947,997.389343 953.250488,998.609680 956.831726,998.736023 
	C962.038025,998.919739 967.274353,998.061401 972.493774,998.107788 
	C979.567505,998.170593 986.639832,998.978699 993.708496,998.923401 
	C1016.496399,998.745117 1039.303223,998.793823 1062.061279,997.803833 
	C1075.244995,997.230286 1087.506104,992.506226 1097.229370,983.163940 
	C1117.497192,963.690125 1120.959229,929.578491 1105.065918,905.699524 
	C1093.797852,888.769592 1076.477905,881.800537 1057.312378,881.289368 
	C1021.850098,880.343628 986.344788,880.989258 950.857666,881.090149 
	C949.579102,881.093750 948.304077,882.348572 946.659058,883.314392 
	C946.421143,883.522156 946.210632,883.754761 945.221497,884.156250 
	C944.815125,885.320435 944.055664,886.484009 944.053650,887.648865 
	C943.993896,922.229126 943.982605,956.809570 944.101868,991.389526 
	C944.107056,992.897888 945.418213,994.401733 945.992126,995.951843 
M1056.499878,1087.125610 
	C1019.798462,1087.125610 983.097046,1087.125610 946.576416,1087.125610 
	C946.576416,1131.326416 946.576416,1174.526611 946.576416,1217.674316 
	C947.505615,1217.850220 947.993652,1218.023804 948.481506,1218.023071 
	C990.781677,1217.958130 1033.085938,1218.190430 1075.379883,1217.638062 
	C1090.719482,1217.437744 1105.474243,1213.419189 1117.815674,1203.580444 
	C1139.459717,1186.325562 1145.167725,1163.269165 1139.829102,1137.285156 
	C1134.973877,1113.653687 1120.337524,1098.048218 1097.090576,1090.964844 
	C1084.177612,1087.030396 1070.837280,1086.963501 1056.499878,1087.125610 
z"/>
<path fill="#D8BC6D" opacity="1.000000" stroke="none" 
	d="
M1180.401611,1018.054199 
	C1183.301514,1013.999817 1186.565063,1009.926758 1189.777466,1005.813721 
	C1205.524902,985.651184 1214.535156,962.924377 1214.932251,937.221008 
	C1215.128540,924.529663 1215.717407,911.592346 1213.665649,899.173218 
	C1209.933838,876.584351 1201.742676,855.649841 1186.481567,837.732178 
	C1167.695190,815.675598 1144.393188,801.378357 1116.286621,795.447632 
	C1101.303345,792.286011 1085.961304,789.927246 1070.689575,789.239868 
	C1047.837158,788.211243 1024.904053,788.974976 1002.005310,788.975342 
	C987.986938,788.975586 973.964661,789.159363 959.952332,788.867676 
	C955.348816,788.771851 950.770996,787.441711 946.155640,786.269043 
	C949.619995,785.971863 953.110046,786.176025 956.600159,786.176819 
	C992.915405,786.184937 1029.237305,785.728882 1065.543457,786.297424 
	C1089.588013,786.673889 1113.332397,790.151245 1135.943970,798.985291 
	C1179.114746,815.851379 1205.066528,847.585571 1214.758545,892.459229 
	C1221.535522,923.835815 1219.218628,954.775146 1206.003540,984.360962 
	C1200.177002,997.404968 1191.849609,1008.815796 1180.401611,1018.054199 
z"/>
<path fill="#D8BC6D" opacity="1.000000" stroke="none" 
	d="
M1226.391602,1246.952148 
	C1226.720947,1245.063599 1227.035034,1242.857666 1228.066528,1241.064575 
	C1238.948364,1222.149414 1245.556641,1201.899414 1248.119019,1180.205688 
	C1250.221802,1162.402588 1249.494385,1144.658203 1245.688721,1127.333740 
	C1240.062744,1101.723267 1228.947998,1078.720093 1208.100342,1061.692993 
	C1196.197876,1051.971680 1183.960938,1042.643799 1169.167847,1037.433960 
	C1167.241333,1036.755493 1165.717896,1034.932983 1164.026611,1033.255615 
	C1210.245483,1050.888916 1240.552856,1082.626587 1248.891968,1132.634399 
	C1253.990479,1163.208008 1251.921143,1193.402466 1239.927246,1222.304443 
	C1236.386230,1230.837402 1231.162231,1238.671997 1226.391602,1246.952148 
z"/>
<path fill="#D8BC6D" opacity="1.000000" stroke="none" 
	d="
M1163.530884,1030.240479 
	C1164.544067,1024.411499 1170.280396,1024.335083 1174.705566,1022.045166 
	C1171.342285,1024.766846 1167.602295,1027.450195 1163.530884,1030.240479 
z"/>
<path fill="#D8BC6D" opacity="1.000000" stroke="none" 
	d="
M1175.427979,1022.101929 
	C1176.505493,1020.744995 1177.917969,1019.372192 1179.703369,1018.031006 
	C1178.638550,1019.403809 1177.200806,1020.744873 1175.427979,1022.101929 
z"/>
<path fill="#254C7E" opacity="1.000000" stroke="none" 
	d="
M1056.999756,1087.124756 
	C1070.837280,1086.963501 1084.177612,1087.030396 1097.090576,1090.964844 
	C1120.337524,1098.048218 1134.973877,1113.653687 1139.829102,1137.285156 
	C1145.167725,1163.269165 1139.459717,1186.325562 1117.815674,1203.580444 
	C1105.474243,1213.419189 1090.719482,1217.437744 1075.379883,1217.638062 
	C1033.085938,1218.190430 990.781677,1217.958130 948.481506,1218.023071 
	C947.993652,1218.023804 947.505615,1217.850220 946.576416,1217.674316 
	C946.576416,1174.526611 946.576416,1131.326416 946.576416,1087.125610 
	C983.097046,1087.125610 1019.798462,1087.125610 1056.999756,1087.124756 
z"/>
<path fill="#404E52" opacity="1.000000" stroke="none" 
	d="
M946.027649,884.012207 
	C946.210632,883.754761 946.421143,883.522156 947.306580,883.218384 
	C982.935730,883.124084 1017.917603,883.045593 1052.898804,883.168030 
	C1066.479370,883.215576 1079.316772,886.260193 1090.609009,894.265625 
	C1113.619019,910.578613 1117.117432,940.312927 1108.677490,962.494934 
	C1104.894165,972.438354 1098.938965,980.992188 1089.078247,985.753845 
	C1090.672607,983.801636 1092.288818,982.211548 1093.890137,980.606628 
	C1108.347656,966.116760 1112.084473,948.472839 1108.971436,928.884277 
	C1104.565918,901.162842 1083.891113,887.252869 1057.709839,886.064270 
	C1046.484863,885.554749 1035.218628,886.017273 1023.973938,885.853760 
	C1015.593994,885.731934 1007.217957,885.081055 998.840881,885.093689 
	C990.552979,885.106140 982.268066,885.757385 973.977783,885.937683 
	C966.987854,886.089783 959.989685,886.074402 952.999939,885.918518 
	C950.001953,885.851746 948.947754,886.845459 948.912537,889.918762 
	C948.726013,906.199463 948.098755,922.477783 948.096619,938.757080 
	C948.094482,954.869873 948.679565,970.982422 948.955444,987.095886 
	C949.068604,993.705078 949.308716,994.054688 956.150879,993.994873 
	C990.578674,993.694214 1025.007324,993.444275 1059.432983,992.979065 
	C1068.079834,992.862183 1076.587891,991.523438 1084.419678,987.355408 
	C1085.814453,986.613098 1087.542603,986.497131 1088.978027,986.411621 
	C1078.835327,993.462524 1067.562744,995.956543 1055.762451,996.017944 
	C1020.535645,996.201416 985.307800,996.163574 950.080322,996.193115 
	C948.759155,996.194214 947.437805,995.995972 946.116577,995.890625 
	C946.116577,995.890625 945.992126,995.951843 946.063599,995.470581 
	C946.099243,957.996887 946.063416,921.004578 946.027649,884.012207 
z"/>
<path fill="#D8BC6D" opacity="1.000000" stroke="none" 
	d="
M1089.093140,986.109131 
	C1098.938965,980.992188 1104.894165,972.438354 1108.677490,962.494934 
	C1117.117432,940.312927 1113.619019,910.578613 1090.609009,894.265625 
	C1079.316772,886.260193 1066.479370,883.215576 1052.898804,883.168030 
	C1017.917603,883.045593 982.935730,883.124084 947.490723,883.071289 
	C948.304077,882.348572 949.579102,881.093750 950.857666,881.090149 
	C986.344788,880.989258 1021.850098,880.343628 1057.312378,881.289368 
	C1076.477905,881.800537 1093.797852,888.769592 1105.065918,905.699524 
	C1120.959229,929.578491 1117.497192,963.690125 1097.229370,983.163940 
	C1087.506104,992.506226 1075.244995,997.230286 1062.061279,997.803833 
	C1039.303223,998.793823 1016.496399,998.745117 993.708496,998.923401 
	C986.639832,998.978699 979.567505,998.170593 972.493774,998.107788 
	C967.274353,998.061401 962.038025,998.919739 956.831726,998.736023 
	C953.250488,998.609680 949.707947,997.389343 946.132324,996.274292 
	C947.437805,995.995972 948.759155,996.194214 950.080322,996.193115 
	C985.307800,996.163574 1020.535645,996.201416 1055.762451,996.017944 
	C1067.562744,995.956543 1078.835327,993.462524 1088.927734,986.363037 
	C1089.016235,985.994751 1089.093140,986.109131 1089.093140,986.109131 
z"/>
<path fill="#D8BC6D" opacity="1.000000" stroke="none" 
	d="
M945.624573,884.084229 
	C946.063416,921.004578 946.099243,957.996887 946.128052,995.448486 
	C945.418213,994.401733 944.107056,992.897888 944.101868,991.389526 
	C943.982605,956.809570 943.993896,922.229126 944.053650,887.648865 
	C944.055664,886.484009 944.815125,885.320435 945.624573,884.084229 
z"/>
<path fill="#234B80" opacity="1.000000" stroke="none" 
	d="
M1089.066528,986.043335 
	C1087.542603,986.497131 1085.814453,986.613098 1084.419678,987.355408 
	C1076.587891,991.523438 1068.079834,992.862183 1059.432983,992.979065 
	C1025.007324,993.444275 990.578674,993.694214 956.150879,993.994873 
	C949.308716,994.054688 949.068604,993.705078 948.955444,987.095886 
	C948.679565,970.982422 948.094482,954.869873 948.096619,938.757080 
	C948.098755,922.477783 948.726013,906.199463 948.912537,889.918762 
	C948.947754,886.845459 950.001953,885.851746 952.999939,885.918518 
	C959.989685,886.074402 966.987854,886.089783 973.977783,885.937683 
	C982.268066,885.757385 990.552979,885.106140 998.840881,885.093689 
	C1007.217957,885.081055 1015.593994,885.731934 1023.973938,885.853760 
	C1035.218628,886.017273 1046.484863,885.554749 1057.709839,886.064270 
	C1083.891113,887.252869 1104.565918,901.162842 1108.971436,928.884277 
	C1112.084473,948.472839 1108.347656,966.116760 1093.890137,980.606628 
	C1092.288818,982.211548 1090.672607,983.801636 1089.078247,985.753845 
	C1089.093140,986.109131 1089.016235,985.994751 1089.066528,986.043335 
z"/>
</svg>